%TF.GenerationSoftware,KiCad,Pcbnew,(6.0.0-rc1-29-g9238b27f63)*%
%TF.CreationDate,2021-12-03T15:56:35+01:00*%
%TF.ProjectId,robolympics_shield,726f626f-6c79-46d7-9069-63735f736869,rev?*%
%TF.SameCoordinates,Original*%
%TF.FileFunction,Legend,Bot*%
%TF.FilePolarity,Positive*%
%FSLAX46Y46*%
G04 Gerber Fmt 4.6, Leading zero omitted, Abs format (unit mm)*
G04 Created by KiCad (PCBNEW (6.0.0-rc1-29-g9238b27f63)) date 2021-12-03 15:56:35*
%MOMM*%
%LPD*%
G01*
G04 APERTURE LIST*
%ADD10C,0.150000*%
%ADD11C,0.100000*%
%ADD12C,0.120000*%
G04 APERTURE END LIST*
D10*
X119500000Y-70000000D02*
X125250000Y-70000000D01*
X119500000Y-77650000D02*
X125200000Y-77650000D01*
X125250000Y-57250000D02*
X119500000Y-57250000D01*
X119500000Y-57250000D02*
X119500000Y-82750000D01*
X119500000Y-82750000D02*
X125250000Y-82750000D01*
X125250000Y-82750000D02*
X125250000Y-57250000D01*
X119500000Y-62350000D02*
X125200000Y-62350000D01*
X119500000Y-72550000D02*
X125200000Y-72550000D01*
X119500000Y-67450000D02*
X125200000Y-67450000D01*
X122375000Y-57250000D02*
X122375000Y-82750000D01*
X119500000Y-64950000D02*
X125200000Y-64950000D01*
X119500000Y-59850000D02*
X125200000Y-59850000D01*
X119500000Y-80150000D02*
X125200000Y-80150000D01*
X119500000Y-75050000D02*
X125200000Y-75050000D01*
D11*
X123616666Y-70866666D02*
X123750000Y-70866666D01*
X123816666Y-70900000D01*
X123850000Y-70933333D01*
X123916666Y-71033333D01*
X123950000Y-71166666D01*
X123950000Y-71433333D01*
X123916666Y-71500000D01*
X123883333Y-71533333D01*
X123816666Y-71566666D01*
X123683333Y-71566666D01*
X123616666Y-71533333D01*
X123583333Y-71500000D01*
X123550000Y-71433333D01*
X123550000Y-71266666D01*
X123583333Y-71200000D01*
X123616666Y-71166666D01*
X123683333Y-71133333D01*
X123816666Y-71133333D01*
X123883333Y-71166666D01*
X123916666Y-71200000D01*
X123950000Y-71266666D01*
X107333333Y-101283333D02*
X107233333Y-101316666D01*
X107066666Y-101316666D01*
X107000000Y-101283333D01*
X106966666Y-101250000D01*
X106933333Y-101183333D01*
X106933333Y-101116666D01*
X106966666Y-101050000D01*
X107000000Y-101016666D01*
X107066666Y-100983333D01*
X107200000Y-100950000D01*
X107266666Y-100916666D01*
X107300000Y-100883333D01*
X107333333Y-100816666D01*
X107333333Y-100750000D01*
X107300000Y-100683333D01*
X107266666Y-100650000D01*
X107200000Y-100616666D01*
X107033333Y-100616666D01*
X106933333Y-100650000D01*
X106233333Y-101250000D02*
X106266666Y-101283333D01*
X106366666Y-101316666D01*
X106433333Y-101316666D01*
X106533333Y-101283333D01*
X106600000Y-101216666D01*
X106633333Y-101150000D01*
X106666666Y-101016666D01*
X106666666Y-100916666D01*
X106633333Y-100783333D01*
X106600000Y-100716666D01*
X106533333Y-100650000D01*
X106433333Y-100616666D01*
X106366666Y-100616666D01*
X106266666Y-100650000D01*
X106233333Y-100683333D01*
X105600000Y-101316666D02*
X105933333Y-101316666D01*
X105933333Y-100616666D01*
X83350000Y-101316666D02*
X83350000Y-100616666D01*
X83116666Y-101116666D01*
X82883333Y-100616666D01*
X82883333Y-101316666D01*
X82416666Y-100616666D02*
X82283333Y-100616666D01*
X82216666Y-100650000D01*
X82150000Y-100716666D01*
X82116666Y-100850000D01*
X82116666Y-101083333D01*
X82150000Y-101216666D01*
X82216666Y-101283333D01*
X82283333Y-101316666D01*
X82416666Y-101316666D01*
X82483333Y-101283333D01*
X82550000Y-101216666D01*
X82583333Y-101083333D01*
X82583333Y-100850000D01*
X82550000Y-100716666D01*
X82483333Y-100650000D01*
X82416666Y-100616666D01*
X94866666Y-92816666D02*
X95100000Y-92483333D01*
X95266666Y-92816666D02*
X95266666Y-92116666D01*
X95000000Y-92116666D01*
X94933333Y-92150000D01*
X94900000Y-92183333D01*
X94866666Y-92250000D01*
X94866666Y-92350000D01*
X94900000Y-92416666D01*
X94933333Y-92450000D01*
X95000000Y-92483333D01*
X95266666Y-92483333D01*
X94633333Y-92116666D02*
X94166666Y-92816666D01*
X94166666Y-92116666D02*
X94633333Y-92816666D01*
X121133333Y-60866666D02*
X121466666Y-60866666D01*
X121500000Y-61200000D01*
X121466666Y-61166666D01*
X121400000Y-61133333D01*
X121233333Y-61133333D01*
X121166666Y-61166666D01*
X121133333Y-61200000D01*
X121100000Y-61266666D01*
X121100000Y-61433333D01*
X121133333Y-61500000D01*
X121166666Y-61533333D01*
X121233333Y-61566666D01*
X121400000Y-61566666D01*
X121466666Y-61533333D01*
X121500000Y-61500000D01*
X120900000Y-60866666D02*
X120666666Y-61566666D01*
X120433333Y-60866666D01*
X124283333Y-78650000D02*
X124350000Y-78616666D01*
X124450000Y-78616666D01*
X124550000Y-78650000D01*
X124616666Y-78716666D01*
X124650000Y-78783333D01*
X124683333Y-78916666D01*
X124683333Y-79016666D01*
X124650000Y-79150000D01*
X124616666Y-79216666D01*
X124550000Y-79283333D01*
X124450000Y-79316666D01*
X124383333Y-79316666D01*
X124283333Y-79283333D01*
X124250000Y-79250000D01*
X124250000Y-79016666D01*
X124383333Y-79016666D01*
X123950000Y-79316666D02*
X123950000Y-78616666D01*
X123550000Y-79316666D01*
X123550000Y-78616666D01*
X123216666Y-79316666D02*
X123216666Y-78616666D01*
X123050000Y-78616666D01*
X122950000Y-78650000D01*
X122883333Y-78716666D01*
X122850000Y-78783333D01*
X122816666Y-78916666D01*
X122816666Y-79016666D01*
X122850000Y-79150000D01*
X122883333Y-79216666D01*
X122950000Y-79283333D01*
X123050000Y-79316666D01*
X123216666Y-79316666D01*
X123783333Y-92150000D02*
X123850000Y-92116666D01*
X123950000Y-92116666D01*
X124050000Y-92150000D01*
X124116666Y-92216666D01*
X124150000Y-92283333D01*
X124183333Y-92416666D01*
X124183333Y-92516666D01*
X124150000Y-92650000D01*
X124116666Y-92716666D01*
X124050000Y-92783333D01*
X123950000Y-92816666D01*
X123883333Y-92816666D01*
X123783333Y-92783333D01*
X123750000Y-92750000D01*
X123750000Y-92516666D01*
X123883333Y-92516666D01*
X123450000Y-92816666D02*
X123450000Y-92116666D01*
X123050000Y-92816666D01*
X123050000Y-92116666D01*
X122716666Y-92816666D02*
X122716666Y-92116666D01*
X122550000Y-92116666D01*
X122450000Y-92150000D01*
X122383333Y-92216666D01*
X122350000Y-92283333D01*
X122316666Y-92416666D01*
X122316666Y-92516666D01*
X122350000Y-92650000D01*
X122383333Y-92716666D01*
X122450000Y-92783333D01*
X122550000Y-92816666D01*
X122716666Y-92816666D01*
X82300000Y-88283333D02*
X82200000Y-88316666D01*
X82033333Y-88316666D01*
X81966666Y-88283333D01*
X81933333Y-88250000D01*
X81900000Y-88183333D01*
X81900000Y-88116666D01*
X81933333Y-88050000D01*
X81966666Y-88016666D01*
X82033333Y-87983333D01*
X82166666Y-87950000D01*
X82233333Y-87916666D01*
X82266666Y-87883333D01*
X82300000Y-87816666D01*
X82300000Y-87750000D01*
X82266666Y-87683333D01*
X82233333Y-87650000D01*
X82166666Y-87616666D01*
X82000000Y-87616666D01*
X81900000Y-87650000D01*
X81600000Y-88316666D02*
X81600000Y-87616666D01*
X81333333Y-87616666D01*
X81266666Y-87650000D01*
X81233333Y-87683333D01*
X81200000Y-87750000D01*
X81200000Y-87850000D01*
X81233333Y-87916666D01*
X81266666Y-87950000D01*
X81333333Y-87983333D01*
X81600000Y-87983333D01*
X80900000Y-88316666D02*
X80900000Y-87616666D01*
X80433333Y-87616666D02*
X80366666Y-87616666D01*
X80300000Y-87650000D01*
X80266666Y-87683333D01*
X80233333Y-87750000D01*
X80200000Y-87883333D01*
X80200000Y-88050000D01*
X80233333Y-88183333D01*
X80266666Y-88250000D01*
X80300000Y-88283333D01*
X80366666Y-88316666D01*
X80433333Y-88316666D01*
X80500000Y-88283333D01*
X80533333Y-88250000D01*
X80566666Y-88183333D01*
X80600000Y-88050000D01*
X80600000Y-87883333D01*
X80566666Y-87750000D01*
X80533333Y-87683333D01*
X80500000Y-87650000D01*
X80433333Y-87616666D01*
X97016666Y-96816666D02*
X97016666Y-96116666D01*
X96716666Y-96183333D02*
X96683333Y-96150000D01*
X96616666Y-96116666D01*
X96450000Y-96116666D01*
X96383333Y-96150000D01*
X96350000Y-96183333D01*
X96316666Y-96250000D01*
X96316666Y-96316666D01*
X96350000Y-96416666D01*
X96750000Y-96816666D01*
X96316666Y-96816666D01*
X95616666Y-96750000D02*
X95650000Y-96783333D01*
X95750000Y-96816666D01*
X95816666Y-96816666D01*
X95916666Y-96783333D01*
X95983333Y-96716666D01*
X96016666Y-96650000D01*
X96050000Y-96516666D01*
X96050000Y-96416666D01*
X96016666Y-96283333D01*
X95983333Y-96216666D01*
X95916666Y-96150000D01*
X95816666Y-96116666D01*
X95750000Y-96116666D01*
X95650000Y-96150000D01*
X95616666Y-96183333D01*
X94950000Y-96816666D02*
X95350000Y-96816666D01*
X95150000Y-96816666D02*
X95150000Y-96116666D01*
X95216666Y-96216666D01*
X95283333Y-96283333D01*
X95350000Y-96316666D01*
X120516666Y-88316666D02*
X120516666Y-87616666D01*
X120216666Y-87683333D02*
X120183333Y-87650000D01*
X120116666Y-87616666D01*
X119950000Y-87616666D01*
X119883333Y-87650000D01*
X119850000Y-87683333D01*
X119816666Y-87750000D01*
X119816666Y-87816666D01*
X119850000Y-87916666D01*
X120250000Y-88316666D01*
X119816666Y-88316666D01*
X119116666Y-88250000D02*
X119150000Y-88283333D01*
X119250000Y-88316666D01*
X119316666Y-88316666D01*
X119416666Y-88283333D01*
X119483333Y-88216666D01*
X119516666Y-88150000D01*
X119550000Y-88016666D01*
X119550000Y-87916666D01*
X119516666Y-87783333D01*
X119483333Y-87716666D01*
X119416666Y-87650000D01*
X119316666Y-87616666D01*
X119250000Y-87616666D01*
X119150000Y-87650000D01*
X119116666Y-87683333D01*
X118450000Y-88316666D02*
X118850000Y-88316666D01*
X118650000Y-88316666D02*
X118650000Y-87616666D01*
X118716666Y-87716666D01*
X118783333Y-87783333D01*
X118850000Y-87816666D01*
X88533333Y-100650000D02*
X88600000Y-100616666D01*
X88700000Y-100616666D01*
X88800000Y-100650000D01*
X88866666Y-100716666D01*
X88900000Y-100783333D01*
X88933333Y-100916666D01*
X88933333Y-101016666D01*
X88900000Y-101150000D01*
X88866666Y-101216666D01*
X88800000Y-101283333D01*
X88700000Y-101316666D01*
X88633333Y-101316666D01*
X88533333Y-101283333D01*
X88500000Y-101250000D01*
X88500000Y-101016666D01*
X88633333Y-101016666D01*
X88200000Y-101316666D02*
X88200000Y-100616666D01*
X87800000Y-101316666D01*
X87800000Y-100616666D01*
X87466666Y-101316666D02*
X87466666Y-100616666D01*
X87300000Y-100616666D01*
X87200000Y-100650000D01*
X87133333Y-100716666D01*
X87100000Y-100783333D01*
X87066666Y-100916666D01*
X87066666Y-101016666D01*
X87100000Y-101150000D01*
X87133333Y-101216666D01*
X87200000Y-101283333D01*
X87300000Y-101316666D01*
X87466666Y-101316666D01*
X108766666Y-88316666D02*
X108766666Y-87616666D01*
X108466666Y-87683333D02*
X108433333Y-87650000D01*
X108366666Y-87616666D01*
X108200000Y-87616666D01*
X108133333Y-87650000D01*
X108100000Y-87683333D01*
X108066666Y-87750000D01*
X108066666Y-87816666D01*
X108100000Y-87916666D01*
X108500000Y-88316666D01*
X108066666Y-88316666D01*
X107366666Y-88250000D02*
X107400000Y-88283333D01*
X107500000Y-88316666D01*
X107566666Y-88316666D01*
X107666666Y-88283333D01*
X107733333Y-88216666D01*
X107766666Y-88150000D01*
X107800000Y-88016666D01*
X107800000Y-87916666D01*
X107766666Y-87783333D01*
X107733333Y-87716666D01*
X107666666Y-87650000D01*
X107566666Y-87616666D01*
X107500000Y-87616666D01*
X107400000Y-87650000D01*
X107366666Y-87683333D01*
X106700000Y-88316666D02*
X107100000Y-88316666D01*
X106900000Y-88316666D02*
X106900000Y-87616666D01*
X106966666Y-87716666D01*
X107033333Y-87783333D01*
X107100000Y-87816666D01*
X93116666Y-92116666D02*
X92683333Y-92116666D01*
X92916666Y-92383333D01*
X92816666Y-92383333D01*
X92750000Y-92416666D01*
X92716666Y-92450000D01*
X92683333Y-92516666D01*
X92683333Y-92683333D01*
X92716666Y-92750000D01*
X92750000Y-92783333D01*
X92816666Y-92816666D01*
X93016666Y-92816666D01*
X93083333Y-92783333D01*
X93116666Y-92750000D01*
X92483333Y-92116666D02*
X92250000Y-92816666D01*
X92016666Y-92116666D01*
X91850000Y-92116666D02*
X91416666Y-92116666D01*
X91650000Y-92383333D01*
X91550000Y-92383333D01*
X91483333Y-92416666D01*
X91450000Y-92450000D01*
X91416666Y-92516666D01*
X91416666Y-92683333D01*
X91450000Y-92750000D01*
X91483333Y-92783333D01*
X91550000Y-92816666D01*
X91750000Y-92816666D01*
X91816666Y-92783333D01*
X91850000Y-92750000D01*
X109850000Y-101283333D02*
X109750000Y-101316666D01*
X109583333Y-101316666D01*
X109516666Y-101283333D01*
X109483333Y-101250000D01*
X109450000Y-101183333D01*
X109450000Y-101116666D01*
X109483333Y-101050000D01*
X109516666Y-101016666D01*
X109583333Y-100983333D01*
X109716666Y-100950000D01*
X109783333Y-100916666D01*
X109816666Y-100883333D01*
X109850000Y-100816666D01*
X109850000Y-100750000D01*
X109816666Y-100683333D01*
X109783333Y-100650000D01*
X109716666Y-100616666D01*
X109550000Y-100616666D01*
X109450000Y-100650000D01*
X109150000Y-101316666D02*
X109150000Y-100616666D01*
X108983333Y-100616666D01*
X108883333Y-100650000D01*
X108816666Y-100716666D01*
X108783333Y-100783333D01*
X108750000Y-100916666D01*
X108750000Y-101016666D01*
X108783333Y-101150000D01*
X108816666Y-101216666D01*
X108883333Y-101283333D01*
X108983333Y-101316666D01*
X109150000Y-101316666D01*
X108483333Y-101116666D02*
X108150000Y-101116666D01*
X108550000Y-101316666D02*
X108316666Y-100616666D01*
X108083333Y-101316666D01*
X121533333Y-73433333D02*
X121500000Y-73400000D01*
X121433333Y-73366666D01*
X121266666Y-73366666D01*
X121200000Y-73400000D01*
X121166666Y-73433333D01*
X121133333Y-73500000D01*
X121133333Y-73566666D01*
X121166666Y-73666666D01*
X121566666Y-74066666D01*
X121133333Y-74066666D01*
X120533333Y-73600000D02*
X120533333Y-74066666D01*
X120700000Y-73333333D02*
X120866666Y-73833333D01*
X120433333Y-73833333D01*
X112033333Y-100650000D02*
X112100000Y-100616666D01*
X112200000Y-100616666D01*
X112300000Y-100650000D01*
X112366666Y-100716666D01*
X112400000Y-100783333D01*
X112433333Y-100916666D01*
X112433333Y-101016666D01*
X112400000Y-101150000D01*
X112366666Y-101216666D01*
X112300000Y-101283333D01*
X112200000Y-101316666D01*
X112133333Y-101316666D01*
X112033333Y-101283333D01*
X112000000Y-101250000D01*
X112000000Y-101016666D01*
X112133333Y-101016666D01*
X111700000Y-101316666D02*
X111700000Y-100616666D01*
X111300000Y-101316666D01*
X111300000Y-100616666D01*
X110966666Y-101316666D02*
X110966666Y-100616666D01*
X110800000Y-100616666D01*
X110700000Y-100650000D01*
X110633333Y-100716666D01*
X110600000Y-100783333D01*
X110566666Y-100916666D01*
X110566666Y-101016666D01*
X110600000Y-101150000D01*
X110633333Y-101216666D01*
X110700000Y-101283333D01*
X110800000Y-101316666D01*
X110966666Y-101316666D01*
X121133333Y-58116666D02*
X121466666Y-58116666D01*
X121500000Y-58450000D01*
X121466666Y-58416666D01*
X121400000Y-58383333D01*
X121233333Y-58383333D01*
X121166666Y-58416666D01*
X121133333Y-58450000D01*
X121100000Y-58516666D01*
X121100000Y-58683333D01*
X121133333Y-58750000D01*
X121166666Y-58783333D01*
X121233333Y-58816666D01*
X121400000Y-58816666D01*
X121466666Y-58783333D01*
X121500000Y-58750000D01*
X120900000Y-58116666D02*
X120666666Y-58816666D01*
X120433333Y-58116666D01*
X85683333Y-101250000D02*
X85716666Y-101283333D01*
X85816666Y-101316666D01*
X85883333Y-101316666D01*
X85983333Y-101283333D01*
X86050000Y-101216666D01*
X86083333Y-101150000D01*
X86116666Y-101016666D01*
X86116666Y-100916666D01*
X86083333Y-100783333D01*
X86050000Y-100716666D01*
X85983333Y-100650000D01*
X85883333Y-100616666D01*
X85816666Y-100616666D01*
X85716666Y-100650000D01*
X85683333Y-100683333D01*
X85383333Y-100950000D02*
X85150000Y-100950000D01*
X85050000Y-101316666D02*
X85383333Y-101316666D01*
X85383333Y-100616666D01*
X85050000Y-100616666D01*
X84383333Y-101316666D02*
X84783333Y-101316666D01*
X84583333Y-101316666D02*
X84583333Y-100616666D01*
X84650000Y-100716666D01*
X84716666Y-100783333D01*
X84783333Y-100816666D01*
X119083333Y-92783333D02*
X118983333Y-92816666D01*
X118816666Y-92816666D01*
X118750000Y-92783333D01*
X118716666Y-92750000D01*
X118683333Y-92683333D01*
X118683333Y-92616666D01*
X118716666Y-92550000D01*
X118750000Y-92516666D01*
X118816666Y-92483333D01*
X118950000Y-92450000D01*
X119016666Y-92416666D01*
X119050000Y-92383333D01*
X119083333Y-92316666D01*
X119083333Y-92250000D01*
X119050000Y-92183333D01*
X119016666Y-92150000D01*
X118950000Y-92116666D01*
X118783333Y-92116666D01*
X118683333Y-92150000D01*
X117983333Y-92750000D02*
X118016666Y-92783333D01*
X118116666Y-92816666D01*
X118183333Y-92816666D01*
X118283333Y-92783333D01*
X118350000Y-92716666D01*
X118383333Y-92650000D01*
X118416666Y-92516666D01*
X118416666Y-92416666D01*
X118383333Y-92283333D01*
X118350000Y-92216666D01*
X118283333Y-92150000D01*
X118183333Y-92116666D01*
X118116666Y-92116666D01*
X118016666Y-92150000D01*
X117983333Y-92183333D01*
X117350000Y-92816666D02*
X117683333Y-92816666D01*
X117683333Y-92116666D01*
X80650000Y-101316666D02*
X80650000Y-100616666D01*
X80416666Y-101116666D01*
X80183333Y-100616666D01*
X80183333Y-101316666D01*
X79850000Y-101316666D02*
X79850000Y-100616666D01*
X83350000Y-92816666D02*
X83350000Y-92116666D01*
X83116666Y-92616666D01*
X82883333Y-92116666D01*
X82883333Y-92816666D01*
X82416666Y-92116666D02*
X82283333Y-92116666D01*
X82216666Y-92150000D01*
X82150000Y-92216666D01*
X82116666Y-92350000D01*
X82116666Y-92583333D01*
X82150000Y-92716666D01*
X82216666Y-92783333D01*
X82283333Y-92816666D01*
X82416666Y-92816666D01*
X82483333Y-92783333D01*
X82550000Y-92716666D01*
X82583333Y-92583333D01*
X82583333Y-92350000D01*
X82550000Y-92216666D01*
X82483333Y-92150000D01*
X82416666Y-92116666D01*
X104866666Y-92116666D02*
X104433333Y-92116666D01*
X104666666Y-92383333D01*
X104566666Y-92383333D01*
X104500000Y-92416666D01*
X104466666Y-92450000D01*
X104433333Y-92516666D01*
X104433333Y-92683333D01*
X104466666Y-92750000D01*
X104500000Y-92783333D01*
X104566666Y-92816666D01*
X104766666Y-92816666D01*
X104833333Y-92783333D01*
X104866666Y-92750000D01*
X104233333Y-92116666D02*
X104000000Y-92816666D01*
X103766666Y-92116666D01*
X103600000Y-92116666D02*
X103166666Y-92116666D01*
X103400000Y-92383333D01*
X103300000Y-92383333D01*
X103233333Y-92416666D01*
X103200000Y-92450000D01*
X103166666Y-92516666D01*
X103166666Y-92683333D01*
X103200000Y-92750000D01*
X103233333Y-92783333D01*
X103300000Y-92816666D01*
X103500000Y-92816666D01*
X103566666Y-92783333D01*
X103600000Y-92750000D01*
X78650000Y-101283333D02*
X78550000Y-101316666D01*
X78383333Y-101316666D01*
X78316666Y-101283333D01*
X78283333Y-101250000D01*
X78250000Y-101183333D01*
X78250000Y-101116666D01*
X78283333Y-101050000D01*
X78316666Y-101016666D01*
X78383333Y-100983333D01*
X78516666Y-100950000D01*
X78583333Y-100916666D01*
X78616666Y-100883333D01*
X78650000Y-100816666D01*
X78650000Y-100750000D01*
X78616666Y-100683333D01*
X78583333Y-100650000D01*
X78516666Y-100616666D01*
X78350000Y-100616666D01*
X78250000Y-100650000D01*
X77550000Y-101250000D02*
X77583333Y-101283333D01*
X77683333Y-101316666D01*
X77750000Y-101316666D01*
X77850000Y-101283333D01*
X77916666Y-101216666D01*
X77950000Y-101150000D01*
X77983333Y-101016666D01*
X77983333Y-100916666D01*
X77950000Y-100783333D01*
X77916666Y-100716666D01*
X77850000Y-100650000D01*
X77750000Y-100616666D01*
X77683333Y-100616666D01*
X77583333Y-100650000D01*
X77550000Y-100683333D01*
X77250000Y-101316666D02*
X77250000Y-100616666D01*
X76850000Y-101316666D02*
X77150000Y-100916666D01*
X76850000Y-100616666D02*
X77250000Y-101016666D01*
X121600000Y-92783333D02*
X121500000Y-92816666D01*
X121333333Y-92816666D01*
X121266666Y-92783333D01*
X121233333Y-92750000D01*
X121200000Y-92683333D01*
X121200000Y-92616666D01*
X121233333Y-92550000D01*
X121266666Y-92516666D01*
X121333333Y-92483333D01*
X121466666Y-92450000D01*
X121533333Y-92416666D01*
X121566666Y-92383333D01*
X121600000Y-92316666D01*
X121600000Y-92250000D01*
X121566666Y-92183333D01*
X121533333Y-92150000D01*
X121466666Y-92116666D01*
X121300000Y-92116666D01*
X121200000Y-92150000D01*
X120900000Y-92816666D02*
X120900000Y-92116666D01*
X120733333Y-92116666D01*
X120633333Y-92150000D01*
X120566666Y-92216666D01*
X120533333Y-92283333D01*
X120500000Y-92416666D01*
X120500000Y-92516666D01*
X120533333Y-92650000D01*
X120566666Y-92716666D01*
X120633333Y-92783333D01*
X120733333Y-92816666D01*
X120900000Y-92816666D01*
X120233333Y-92616666D02*
X119900000Y-92616666D01*
X120300000Y-92816666D02*
X120066666Y-92116666D01*
X119833333Y-92816666D01*
X120516666Y-96816666D02*
X120516666Y-96116666D01*
X120216666Y-96183333D02*
X120183333Y-96150000D01*
X120116666Y-96116666D01*
X119950000Y-96116666D01*
X119883333Y-96150000D01*
X119850000Y-96183333D01*
X119816666Y-96250000D01*
X119816666Y-96316666D01*
X119850000Y-96416666D01*
X120250000Y-96816666D01*
X119816666Y-96816666D01*
X119116666Y-96750000D02*
X119150000Y-96783333D01*
X119250000Y-96816666D01*
X119316666Y-96816666D01*
X119416666Y-96783333D01*
X119483333Y-96716666D01*
X119516666Y-96650000D01*
X119550000Y-96516666D01*
X119550000Y-96416666D01*
X119516666Y-96283333D01*
X119483333Y-96216666D01*
X119416666Y-96150000D01*
X119316666Y-96116666D01*
X119250000Y-96116666D01*
X119150000Y-96150000D01*
X119116666Y-96183333D01*
X118450000Y-96816666D02*
X118850000Y-96816666D01*
X118650000Y-96816666D02*
X118650000Y-96116666D01*
X118716666Y-96216666D01*
X118783333Y-96283333D01*
X118850000Y-96316666D01*
X123883333Y-69066666D02*
X124283333Y-69066666D01*
X124083333Y-69066666D02*
X124083333Y-68366666D01*
X124150000Y-68466666D01*
X124216666Y-68533333D01*
X124283333Y-68566666D01*
X123550000Y-69066666D02*
X123416666Y-69066666D01*
X123350000Y-69033333D01*
X123316666Y-69000000D01*
X123250000Y-68900000D01*
X123216666Y-68766666D01*
X123216666Y-68500000D01*
X123250000Y-68433333D01*
X123283333Y-68400000D01*
X123350000Y-68366666D01*
X123483333Y-68366666D01*
X123550000Y-68400000D01*
X123583333Y-68433333D01*
X123616666Y-68500000D01*
X123616666Y-68666666D01*
X123583333Y-68733333D01*
X123550000Y-68766666D01*
X123483333Y-68800000D01*
X123350000Y-68800000D01*
X123283333Y-68766666D01*
X123250000Y-68733333D01*
X123216666Y-68666666D01*
X98100000Y-101283333D02*
X98000000Y-101316666D01*
X97833333Y-101316666D01*
X97766666Y-101283333D01*
X97733333Y-101250000D01*
X97700000Y-101183333D01*
X97700000Y-101116666D01*
X97733333Y-101050000D01*
X97766666Y-101016666D01*
X97833333Y-100983333D01*
X97966666Y-100950000D01*
X98033333Y-100916666D01*
X98066666Y-100883333D01*
X98100000Y-100816666D01*
X98100000Y-100750000D01*
X98066666Y-100683333D01*
X98033333Y-100650000D01*
X97966666Y-100616666D01*
X97800000Y-100616666D01*
X97700000Y-100650000D01*
X97400000Y-101316666D02*
X97400000Y-100616666D01*
X97233333Y-100616666D01*
X97133333Y-100650000D01*
X97066666Y-100716666D01*
X97033333Y-100783333D01*
X97000000Y-100916666D01*
X97000000Y-101016666D01*
X97033333Y-101150000D01*
X97066666Y-101216666D01*
X97133333Y-101283333D01*
X97233333Y-101316666D01*
X97400000Y-101316666D01*
X96733333Y-101116666D02*
X96400000Y-101116666D01*
X96800000Y-101316666D02*
X96566666Y-100616666D01*
X96333333Y-101316666D01*
X123783333Y-100650000D02*
X123850000Y-100616666D01*
X123950000Y-100616666D01*
X124050000Y-100650000D01*
X124116666Y-100716666D01*
X124150000Y-100783333D01*
X124183333Y-100916666D01*
X124183333Y-101016666D01*
X124150000Y-101150000D01*
X124116666Y-101216666D01*
X124050000Y-101283333D01*
X123950000Y-101316666D01*
X123883333Y-101316666D01*
X123783333Y-101283333D01*
X123750000Y-101250000D01*
X123750000Y-101016666D01*
X123883333Y-101016666D01*
X123450000Y-101316666D02*
X123450000Y-100616666D01*
X123050000Y-101316666D01*
X123050000Y-100616666D01*
X122716666Y-101316666D02*
X122716666Y-100616666D01*
X122550000Y-100616666D01*
X122450000Y-100650000D01*
X122383333Y-100716666D01*
X122350000Y-100783333D01*
X122316666Y-100916666D01*
X122316666Y-101016666D01*
X122350000Y-101150000D01*
X122383333Y-101216666D01*
X122450000Y-101283333D01*
X122550000Y-101316666D01*
X122716666Y-101316666D01*
X76116666Y-100616666D02*
X75683333Y-100616666D01*
X75916666Y-100883333D01*
X75816666Y-100883333D01*
X75750000Y-100916666D01*
X75716666Y-100950000D01*
X75683333Y-101016666D01*
X75683333Y-101183333D01*
X75716666Y-101250000D01*
X75750000Y-101283333D01*
X75816666Y-101316666D01*
X76016666Y-101316666D01*
X76083333Y-101283333D01*
X76116666Y-101250000D01*
X75483333Y-100616666D02*
X75250000Y-101316666D01*
X75016666Y-100616666D01*
X74850000Y-100616666D02*
X74416666Y-100616666D01*
X74650000Y-100883333D01*
X74550000Y-100883333D01*
X74483333Y-100916666D01*
X74450000Y-100950000D01*
X74416666Y-101016666D01*
X74416666Y-101183333D01*
X74450000Y-101250000D01*
X74483333Y-101283333D01*
X74550000Y-101316666D01*
X74750000Y-101316666D01*
X74816666Y-101283333D01*
X74850000Y-101250000D01*
X121133333Y-66566666D02*
X121533333Y-66566666D01*
X121333333Y-66566666D02*
X121333333Y-65866666D01*
X121400000Y-65966666D01*
X121466666Y-66033333D01*
X121533333Y-66066666D01*
X120533333Y-65866666D02*
X120666666Y-65866666D01*
X120733333Y-65900000D01*
X120766666Y-65933333D01*
X120833333Y-66033333D01*
X120866666Y-66166666D01*
X120866666Y-66433333D01*
X120833333Y-66500000D01*
X120800000Y-66533333D01*
X120733333Y-66566666D01*
X120600000Y-66566666D01*
X120533333Y-66533333D01*
X120500000Y-66500000D01*
X120466666Y-66433333D01*
X120466666Y-66266666D01*
X120500000Y-66200000D01*
X120533333Y-66166666D01*
X120600000Y-66133333D01*
X120733333Y-66133333D01*
X120800000Y-66166666D01*
X120833333Y-66200000D01*
X120866666Y-66266666D01*
X76116666Y-92116666D02*
X75683333Y-92116666D01*
X75916666Y-92383333D01*
X75816666Y-92383333D01*
X75750000Y-92416666D01*
X75716666Y-92450000D01*
X75683333Y-92516666D01*
X75683333Y-92683333D01*
X75716666Y-92750000D01*
X75750000Y-92783333D01*
X75816666Y-92816666D01*
X76016666Y-92816666D01*
X76083333Y-92783333D01*
X76116666Y-92750000D01*
X75483333Y-92116666D02*
X75250000Y-92816666D01*
X75016666Y-92116666D01*
X74850000Y-92116666D02*
X74416666Y-92116666D01*
X74650000Y-92383333D01*
X74550000Y-92383333D01*
X74483333Y-92416666D01*
X74450000Y-92450000D01*
X74416666Y-92516666D01*
X74416666Y-92683333D01*
X74450000Y-92750000D01*
X74483333Y-92783333D01*
X74550000Y-92816666D01*
X74750000Y-92816666D01*
X74816666Y-92783333D01*
X74850000Y-92750000D01*
X88533333Y-92150000D02*
X88600000Y-92116666D01*
X88700000Y-92116666D01*
X88800000Y-92150000D01*
X88866666Y-92216666D01*
X88900000Y-92283333D01*
X88933333Y-92416666D01*
X88933333Y-92516666D01*
X88900000Y-92650000D01*
X88866666Y-92716666D01*
X88800000Y-92783333D01*
X88700000Y-92816666D01*
X88633333Y-92816666D01*
X88533333Y-92783333D01*
X88500000Y-92750000D01*
X88500000Y-92516666D01*
X88633333Y-92516666D01*
X88200000Y-92816666D02*
X88200000Y-92116666D01*
X87800000Y-92816666D01*
X87800000Y-92116666D01*
X87466666Y-92816666D02*
X87466666Y-92116666D01*
X87300000Y-92116666D01*
X87200000Y-92150000D01*
X87133333Y-92216666D01*
X87100000Y-92283333D01*
X87066666Y-92416666D01*
X87066666Y-92516666D01*
X87100000Y-92650000D01*
X87133333Y-92716666D01*
X87200000Y-92783333D01*
X87300000Y-92816666D01*
X87466666Y-92816666D01*
X97450000Y-87616666D02*
X97450000Y-88183333D01*
X97416666Y-88250000D01*
X97383333Y-88283333D01*
X97316666Y-88316666D01*
X97183333Y-88316666D01*
X97116666Y-88283333D01*
X97083333Y-88250000D01*
X97050000Y-88183333D01*
X97050000Y-87616666D01*
X96750000Y-88116666D02*
X96416666Y-88116666D01*
X96816666Y-88316666D02*
X96583333Y-87616666D01*
X96350000Y-88316666D01*
X95716666Y-88316666D02*
X95950000Y-87983333D01*
X96116666Y-88316666D02*
X96116666Y-87616666D01*
X95850000Y-87616666D01*
X95783333Y-87650000D01*
X95750000Y-87683333D01*
X95716666Y-87750000D01*
X95716666Y-87850000D01*
X95750000Y-87916666D01*
X95783333Y-87950000D01*
X95850000Y-87983333D01*
X96116666Y-87983333D01*
X95516666Y-87616666D02*
X95116666Y-87616666D01*
X95316666Y-88316666D02*
X95316666Y-87616666D01*
X94516666Y-88316666D02*
X94916666Y-88316666D01*
X94716666Y-88316666D02*
X94716666Y-87616666D01*
X94783333Y-87716666D01*
X94850000Y-87783333D01*
X94916666Y-87816666D01*
X100283333Y-92150000D02*
X100350000Y-92116666D01*
X100450000Y-92116666D01*
X100550000Y-92150000D01*
X100616666Y-92216666D01*
X100650000Y-92283333D01*
X100683333Y-92416666D01*
X100683333Y-92516666D01*
X100650000Y-92650000D01*
X100616666Y-92716666D01*
X100550000Y-92783333D01*
X100450000Y-92816666D01*
X100383333Y-92816666D01*
X100283333Y-92783333D01*
X100250000Y-92750000D01*
X100250000Y-92516666D01*
X100383333Y-92516666D01*
X99950000Y-92816666D02*
X99950000Y-92116666D01*
X99550000Y-92816666D01*
X99550000Y-92116666D01*
X99216666Y-92816666D02*
X99216666Y-92116666D01*
X99050000Y-92116666D01*
X98950000Y-92150000D01*
X98883333Y-92216666D01*
X98850000Y-92283333D01*
X98816666Y-92416666D01*
X98816666Y-92516666D01*
X98850000Y-92650000D01*
X98883333Y-92716666D01*
X98950000Y-92783333D01*
X99050000Y-92816666D01*
X99216666Y-92816666D01*
X121600000Y-101283333D02*
X121500000Y-101316666D01*
X121333333Y-101316666D01*
X121266666Y-101283333D01*
X121233333Y-101250000D01*
X121200000Y-101183333D01*
X121200000Y-101116666D01*
X121233333Y-101050000D01*
X121266666Y-101016666D01*
X121333333Y-100983333D01*
X121466666Y-100950000D01*
X121533333Y-100916666D01*
X121566666Y-100883333D01*
X121600000Y-100816666D01*
X121600000Y-100750000D01*
X121566666Y-100683333D01*
X121533333Y-100650000D01*
X121466666Y-100616666D01*
X121300000Y-100616666D01*
X121200000Y-100650000D01*
X120900000Y-101316666D02*
X120900000Y-100616666D01*
X120733333Y-100616666D01*
X120633333Y-100650000D01*
X120566666Y-100716666D01*
X120533333Y-100783333D01*
X120500000Y-100916666D01*
X120500000Y-101016666D01*
X120533333Y-101150000D01*
X120566666Y-101216666D01*
X120633333Y-101283333D01*
X120733333Y-101316666D01*
X120900000Y-101316666D01*
X120233333Y-101116666D02*
X119900000Y-101116666D01*
X120300000Y-101316666D02*
X120066666Y-100616666D01*
X119833333Y-101316666D01*
X120833333Y-70866666D02*
X121166666Y-70866666D01*
X121200000Y-71200000D01*
X121166666Y-71166666D01*
X121100000Y-71133333D01*
X120933333Y-71133333D01*
X120866666Y-71166666D01*
X120833333Y-71200000D01*
X120800000Y-71266666D01*
X120800000Y-71433333D01*
X120833333Y-71500000D01*
X120866666Y-71533333D01*
X120933333Y-71566666D01*
X121100000Y-71566666D01*
X121166666Y-71533333D01*
X121200000Y-71500000D01*
X100283333Y-100650000D02*
X100350000Y-100616666D01*
X100450000Y-100616666D01*
X100550000Y-100650000D01*
X100616666Y-100716666D01*
X100650000Y-100783333D01*
X100683333Y-100916666D01*
X100683333Y-101016666D01*
X100650000Y-101150000D01*
X100616666Y-101216666D01*
X100550000Y-101283333D01*
X100450000Y-101316666D01*
X100383333Y-101316666D01*
X100283333Y-101283333D01*
X100250000Y-101250000D01*
X100250000Y-101016666D01*
X100383333Y-101016666D01*
X99950000Y-101316666D02*
X99950000Y-100616666D01*
X99550000Y-101316666D01*
X99550000Y-100616666D01*
X99216666Y-101316666D02*
X99216666Y-100616666D01*
X99050000Y-100616666D01*
X98950000Y-100650000D01*
X98883333Y-100716666D01*
X98850000Y-100783333D01*
X98816666Y-100916666D01*
X98816666Y-101016666D01*
X98850000Y-101150000D01*
X98883333Y-101216666D01*
X98950000Y-101283333D01*
X99050000Y-101316666D01*
X99216666Y-101316666D01*
X78650000Y-92783333D02*
X78550000Y-92816666D01*
X78383333Y-92816666D01*
X78316666Y-92783333D01*
X78283333Y-92750000D01*
X78250000Y-92683333D01*
X78250000Y-92616666D01*
X78283333Y-92550000D01*
X78316666Y-92516666D01*
X78383333Y-92483333D01*
X78516666Y-92450000D01*
X78583333Y-92416666D01*
X78616666Y-92383333D01*
X78650000Y-92316666D01*
X78650000Y-92250000D01*
X78616666Y-92183333D01*
X78583333Y-92150000D01*
X78516666Y-92116666D01*
X78350000Y-92116666D01*
X78250000Y-92150000D01*
X77550000Y-92750000D02*
X77583333Y-92783333D01*
X77683333Y-92816666D01*
X77750000Y-92816666D01*
X77850000Y-92783333D01*
X77916666Y-92716666D01*
X77950000Y-92650000D01*
X77983333Y-92516666D01*
X77983333Y-92416666D01*
X77950000Y-92283333D01*
X77916666Y-92216666D01*
X77850000Y-92150000D01*
X77750000Y-92116666D01*
X77683333Y-92116666D01*
X77583333Y-92150000D01*
X77550000Y-92183333D01*
X77250000Y-92816666D02*
X77250000Y-92116666D01*
X76850000Y-92816666D02*
X77150000Y-92416666D01*
X76850000Y-92116666D02*
X77250000Y-92516666D01*
X124283333Y-75933333D02*
X124250000Y-75900000D01*
X124183333Y-75866666D01*
X124016666Y-75866666D01*
X123950000Y-75900000D01*
X123916666Y-75933333D01*
X123883333Y-76000000D01*
X123883333Y-76066666D01*
X123916666Y-76166666D01*
X124316666Y-76566666D01*
X123883333Y-76566666D01*
X123650000Y-75866666D02*
X123216666Y-75866666D01*
X123450000Y-76133333D01*
X123350000Y-76133333D01*
X123283333Y-76166666D01*
X123250000Y-76200000D01*
X123216666Y-76266666D01*
X123216666Y-76433333D01*
X123250000Y-76500000D01*
X123283333Y-76533333D01*
X123350000Y-76566666D01*
X123550000Y-76566666D01*
X123616666Y-76533333D01*
X123650000Y-76500000D01*
X121533333Y-81150000D02*
X121600000Y-81116666D01*
X121700000Y-81116666D01*
X121800000Y-81150000D01*
X121866666Y-81216666D01*
X121900000Y-81283333D01*
X121933333Y-81416666D01*
X121933333Y-81516666D01*
X121900000Y-81650000D01*
X121866666Y-81716666D01*
X121800000Y-81783333D01*
X121700000Y-81816666D01*
X121633333Y-81816666D01*
X121533333Y-81783333D01*
X121500000Y-81750000D01*
X121500000Y-81516666D01*
X121633333Y-81516666D01*
X121200000Y-81816666D02*
X121200000Y-81116666D01*
X120800000Y-81816666D01*
X120800000Y-81116666D01*
X120466666Y-81816666D02*
X120466666Y-81116666D01*
X120300000Y-81116666D01*
X120200000Y-81150000D01*
X120133333Y-81216666D01*
X120100000Y-81283333D01*
X120066666Y-81416666D01*
X120066666Y-81516666D01*
X120100000Y-81650000D01*
X120133333Y-81716666D01*
X120200000Y-81783333D01*
X120300000Y-81816666D01*
X120466666Y-81816666D01*
X95583333Y-101283333D02*
X95483333Y-101316666D01*
X95316666Y-101316666D01*
X95250000Y-101283333D01*
X95216666Y-101250000D01*
X95183333Y-101183333D01*
X95183333Y-101116666D01*
X95216666Y-101050000D01*
X95250000Y-101016666D01*
X95316666Y-100983333D01*
X95450000Y-100950000D01*
X95516666Y-100916666D01*
X95550000Y-100883333D01*
X95583333Y-100816666D01*
X95583333Y-100750000D01*
X95550000Y-100683333D01*
X95516666Y-100650000D01*
X95450000Y-100616666D01*
X95283333Y-100616666D01*
X95183333Y-100650000D01*
X94483333Y-101250000D02*
X94516666Y-101283333D01*
X94616666Y-101316666D01*
X94683333Y-101316666D01*
X94783333Y-101283333D01*
X94850000Y-101216666D01*
X94883333Y-101150000D01*
X94916666Y-101016666D01*
X94916666Y-100916666D01*
X94883333Y-100783333D01*
X94850000Y-100716666D01*
X94783333Y-100650000D01*
X94683333Y-100616666D01*
X94616666Y-100616666D01*
X94516666Y-100650000D01*
X94483333Y-100683333D01*
X93850000Y-101316666D02*
X94183333Y-101316666D01*
X94183333Y-100616666D01*
X82300000Y-96783333D02*
X82200000Y-96816666D01*
X82033333Y-96816666D01*
X81966666Y-96783333D01*
X81933333Y-96750000D01*
X81900000Y-96683333D01*
X81900000Y-96616666D01*
X81933333Y-96550000D01*
X81966666Y-96516666D01*
X82033333Y-96483333D01*
X82166666Y-96450000D01*
X82233333Y-96416666D01*
X82266666Y-96383333D01*
X82300000Y-96316666D01*
X82300000Y-96250000D01*
X82266666Y-96183333D01*
X82233333Y-96150000D01*
X82166666Y-96116666D01*
X82000000Y-96116666D01*
X81900000Y-96150000D01*
X81600000Y-96816666D02*
X81600000Y-96116666D01*
X81333333Y-96116666D01*
X81266666Y-96150000D01*
X81233333Y-96183333D01*
X81200000Y-96250000D01*
X81200000Y-96350000D01*
X81233333Y-96416666D01*
X81266666Y-96450000D01*
X81333333Y-96483333D01*
X81600000Y-96483333D01*
X80900000Y-96816666D02*
X80900000Y-96116666D01*
X80433333Y-96116666D02*
X80366666Y-96116666D01*
X80300000Y-96150000D01*
X80266666Y-96183333D01*
X80233333Y-96250000D01*
X80200000Y-96383333D01*
X80200000Y-96550000D01*
X80233333Y-96683333D01*
X80266666Y-96750000D01*
X80300000Y-96783333D01*
X80366666Y-96816666D01*
X80433333Y-96816666D01*
X80500000Y-96783333D01*
X80533333Y-96750000D01*
X80566666Y-96683333D01*
X80600000Y-96550000D01*
X80600000Y-96383333D01*
X80566666Y-96250000D01*
X80533333Y-96183333D01*
X80500000Y-96150000D01*
X80433333Y-96116666D01*
X124283333Y-73433333D02*
X124250000Y-73400000D01*
X124183333Y-73366666D01*
X124016666Y-73366666D01*
X123950000Y-73400000D01*
X123916666Y-73433333D01*
X123883333Y-73500000D01*
X123883333Y-73566666D01*
X123916666Y-73666666D01*
X124316666Y-74066666D01*
X123883333Y-74066666D01*
X123250000Y-73366666D02*
X123583333Y-73366666D01*
X123616666Y-73700000D01*
X123583333Y-73666666D01*
X123516666Y-73633333D01*
X123350000Y-73633333D01*
X123283333Y-73666666D01*
X123250000Y-73700000D01*
X123216666Y-73766666D01*
X123216666Y-73933333D01*
X123250000Y-74000000D01*
X123283333Y-74033333D01*
X123350000Y-74066666D01*
X123516666Y-74066666D01*
X123583333Y-74033333D01*
X123616666Y-74000000D01*
X116616666Y-100616666D02*
X116183333Y-100616666D01*
X116416666Y-100883333D01*
X116316666Y-100883333D01*
X116250000Y-100916666D01*
X116216666Y-100950000D01*
X116183333Y-101016666D01*
X116183333Y-101183333D01*
X116216666Y-101250000D01*
X116250000Y-101283333D01*
X116316666Y-101316666D01*
X116516666Y-101316666D01*
X116583333Y-101283333D01*
X116616666Y-101250000D01*
X115983333Y-100616666D02*
X115750000Y-101316666D01*
X115516666Y-100616666D01*
X115350000Y-100616666D02*
X114916666Y-100616666D01*
X115150000Y-100883333D01*
X115050000Y-100883333D01*
X114983333Y-100916666D01*
X114950000Y-100950000D01*
X114916666Y-101016666D01*
X114916666Y-101183333D01*
X114950000Y-101250000D01*
X114983333Y-101283333D01*
X115050000Y-101316666D01*
X115250000Y-101316666D01*
X115316666Y-101283333D01*
X115350000Y-101250000D01*
X112033333Y-92150000D02*
X112100000Y-92116666D01*
X112200000Y-92116666D01*
X112300000Y-92150000D01*
X112366666Y-92216666D01*
X112400000Y-92283333D01*
X112433333Y-92416666D01*
X112433333Y-92516666D01*
X112400000Y-92650000D01*
X112366666Y-92716666D01*
X112300000Y-92783333D01*
X112200000Y-92816666D01*
X112133333Y-92816666D01*
X112033333Y-92783333D01*
X112000000Y-92750000D01*
X112000000Y-92516666D01*
X112133333Y-92516666D01*
X111700000Y-92816666D02*
X111700000Y-92116666D01*
X111300000Y-92816666D01*
X111300000Y-92116666D01*
X110966666Y-92816666D02*
X110966666Y-92116666D01*
X110800000Y-92116666D01*
X110700000Y-92150000D01*
X110633333Y-92216666D01*
X110600000Y-92283333D01*
X110566666Y-92416666D01*
X110566666Y-92516666D01*
X110600000Y-92650000D01*
X110633333Y-92716666D01*
X110700000Y-92783333D01*
X110800000Y-92816666D01*
X110966666Y-92816666D01*
X124283333Y-81150000D02*
X124350000Y-81116666D01*
X124450000Y-81116666D01*
X124550000Y-81150000D01*
X124616666Y-81216666D01*
X124650000Y-81283333D01*
X124683333Y-81416666D01*
X124683333Y-81516666D01*
X124650000Y-81650000D01*
X124616666Y-81716666D01*
X124550000Y-81783333D01*
X124450000Y-81816666D01*
X124383333Y-81816666D01*
X124283333Y-81783333D01*
X124250000Y-81750000D01*
X124250000Y-81516666D01*
X124383333Y-81516666D01*
X123950000Y-81816666D02*
X123950000Y-81116666D01*
X123550000Y-81816666D01*
X123550000Y-81116666D01*
X123216666Y-81816666D02*
X123216666Y-81116666D01*
X123050000Y-81116666D01*
X122950000Y-81150000D01*
X122883333Y-81216666D01*
X122850000Y-81283333D01*
X122816666Y-81416666D01*
X122816666Y-81516666D01*
X122850000Y-81650000D01*
X122883333Y-81716666D01*
X122950000Y-81783333D01*
X123050000Y-81816666D01*
X123216666Y-81816666D01*
X104866666Y-100616666D02*
X104433333Y-100616666D01*
X104666666Y-100883333D01*
X104566666Y-100883333D01*
X104500000Y-100916666D01*
X104466666Y-100950000D01*
X104433333Y-101016666D01*
X104433333Y-101183333D01*
X104466666Y-101250000D01*
X104500000Y-101283333D01*
X104566666Y-101316666D01*
X104766666Y-101316666D01*
X104833333Y-101283333D01*
X104866666Y-101250000D01*
X104233333Y-100616666D02*
X104000000Y-101316666D01*
X103766666Y-100616666D01*
X103600000Y-100616666D02*
X103166666Y-100616666D01*
X103400000Y-100883333D01*
X103300000Y-100883333D01*
X103233333Y-100916666D01*
X103200000Y-100950000D01*
X103166666Y-101016666D01*
X103166666Y-101183333D01*
X103200000Y-101250000D01*
X103233333Y-101283333D01*
X103300000Y-101316666D01*
X103500000Y-101316666D01*
X103566666Y-101283333D01*
X103600000Y-101250000D01*
X124616666Y-60866666D02*
X124183333Y-60866666D01*
X124416666Y-61133333D01*
X124316666Y-61133333D01*
X124250000Y-61166666D01*
X124216666Y-61200000D01*
X124183333Y-61266666D01*
X124183333Y-61433333D01*
X124216666Y-61500000D01*
X124250000Y-61533333D01*
X124316666Y-61566666D01*
X124516666Y-61566666D01*
X124583333Y-61533333D01*
X124616666Y-61500000D01*
X123983333Y-60866666D02*
X123750000Y-61566666D01*
X123516666Y-60866666D01*
X123350000Y-60866666D02*
X122916666Y-60866666D01*
X123150000Y-61133333D01*
X123050000Y-61133333D01*
X122983333Y-61166666D01*
X122950000Y-61200000D01*
X122916666Y-61266666D01*
X122916666Y-61433333D01*
X122950000Y-61500000D01*
X122983333Y-61533333D01*
X123050000Y-61566666D01*
X123250000Y-61566666D01*
X123316666Y-61533333D01*
X123350000Y-61500000D01*
X124616666Y-58116666D02*
X124183333Y-58116666D01*
X124416666Y-58383333D01*
X124316666Y-58383333D01*
X124250000Y-58416666D01*
X124216666Y-58450000D01*
X124183333Y-58516666D01*
X124183333Y-58683333D01*
X124216666Y-58750000D01*
X124250000Y-58783333D01*
X124316666Y-58816666D01*
X124516666Y-58816666D01*
X124583333Y-58783333D01*
X124616666Y-58750000D01*
X123983333Y-58116666D02*
X123750000Y-58816666D01*
X123516666Y-58116666D01*
X123350000Y-58116666D02*
X122916666Y-58116666D01*
X123150000Y-58383333D01*
X123050000Y-58383333D01*
X122983333Y-58416666D01*
X122950000Y-58450000D01*
X122916666Y-58516666D01*
X122916666Y-58683333D01*
X122950000Y-58750000D01*
X122983333Y-58783333D01*
X123050000Y-58816666D01*
X123250000Y-58816666D01*
X123316666Y-58783333D01*
X123350000Y-58750000D01*
X121533333Y-78650000D02*
X121600000Y-78616666D01*
X121700000Y-78616666D01*
X121800000Y-78650000D01*
X121866666Y-78716666D01*
X121900000Y-78783333D01*
X121933333Y-78916666D01*
X121933333Y-79016666D01*
X121900000Y-79150000D01*
X121866666Y-79216666D01*
X121800000Y-79283333D01*
X121700000Y-79316666D01*
X121633333Y-79316666D01*
X121533333Y-79283333D01*
X121500000Y-79250000D01*
X121500000Y-79016666D01*
X121633333Y-79016666D01*
X121200000Y-79316666D02*
X121200000Y-78616666D01*
X120800000Y-79316666D01*
X120800000Y-78616666D01*
X120466666Y-79316666D02*
X120466666Y-78616666D01*
X120300000Y-78616666D01*
X120200000Y-78650000D01*
X120133333Y-78716666D01*
X120100000Y-78783333D01*
X120066666Y-78916666D01*
X120066666Y-79016666D01*
X120100000Y-79150000D01*
X120133333Y-79216666D01*
X120200000Y-79283333D01*
X120300000Y-79316666D01*
X120466666Y-79316666D01*
X108766666Y-96816666D02*
X108766666Y-96116666D01*
X108466666Y-96183333D02*
X108433333Y-96150000D01*
X108366666Y-96116666D01*
X108200000Y-96116666D01*
X108133333Y-96150000D01*
X108100000Y-96183333D01*
X108066666Y-96250000D01*
X108066666Y-96316666D01*
X108100000Y-96416666D01*
X108500000Y-96816666D01*
X108066666Y-96816666D01*
X107366666Y-96750000D02*
X107400000Y-96783333D01*
X107500000Y-96816666D01*
X107566666Y-96816666D01*
X107666666Y-96783333D01*
X107733333Y-96716666D01*
X107766666Y-96650000D01*
X107800000Y-96516666D01*
X107800000Y-96416666D01*
X107766666Y-96283333D01*
X107733333Y-96216666D01*
X107666666Y-96150000D01*
X107566666Y-96116666D01*
X107500000Y-96116666D01*
X107400000Y-96150000D01*
X107366666Y-96183333D01*
X106700000Y-96816666D02*
X107100000Y-96816666D01*
X106900000Y-96816666D02*
X106900000Y-96116666D01*
X106966666Y-96216666D01*
X107033333Y-96283333D01*
X107100000Y-96316666D01*
X93116666Y-100616666D02*
X92683333Y-100616666D01*
X92916666Y-100883333D01*
X92816666Y-100883333D01*
X92750000Y-100916666D01*
X92716666Y-100950000D01*
X92683333Y-101016666D01*
X92683333Y-101183333D01*
X92716666Y-101250000D01*
X92750000Y-101283333D01*
X92816666Y-101316666D01*
X93016666Y-101316666D01*
X93083333Y-101283333D01*
X93116666Y-101250000D01*
X92483333Y-100616666D02*
X92250000Y-101316666D01*
X92016666Y-100616666D01*
X91850000Y-100616666D02*
X91416666Y-100616666D01*
X91650000Y-100883333D01*
X91550000Y-100883333D01*
X91483333Y-100916666D01*
X91450000Y-100950000D01*
X91416666Y-101016666D01*
X91416666Y-101183333D01*
X91450000Y-101250000D01*
X91483333Y-101283333D01*
X91550000Y-101316666D01*
X91750000Y-101316666D01*
X91816666Y-101283333D01*
X91850000Y-101250000D01*
X80650000Y-92816666D02*
X80650000Y-92116666D01*
X80416666Y-92616666D01*
X80183333Y-92116666D01*
X80183333Y-92816666D01*
X79850000Y-92816666D02*
X79850000Y-92116666D01*
X119083333Y-101283333D02*
X118983333Y-101316666D01*
X118816666Y-101316666D01*
X118750000Y-101283333D01*
X118716666Y-101250000D01*
X118683333Y-101183333D01*
X118683333Y-101116666D01*
X118716666Y-101050000D01*
X118750000Y-101016666D01*
X118816666Y-100983333D01*
X118950000Y-100950000D01*
X119016666Y-100916666D01*
X119050000Y-100883333D01*
X119083333Y-100816666D01*
X119083333Y-100750000D01*
X119050000Y-100683333D01*
X119016666Y-100650000D01*
X118950000Y-100616666D01*
X118783333Y-100616666D01*
X118683333Y-100650000D01*
X117983333Y-101250000D02*
X118016666Y-101283333D01*
X118116666Y-101316666D01*
X118183333Y-101316666D01*
X118283333Y-101283333D01*
X118350000Y-101216666D01*
X118383333Y-101150000D01*
X118416666Y-101016666D01*
X118416666Y-100916666D01*
X118383333Y-100783333D01*
X118350000Y-100716666D01*
X118283333Y-100650000D01*
X118183333Y-100616666D01*
X118116666Y-100616666D01*
X118016666Y-100650000D01*
X117983333Y-100683333D01*
X117350000Y-101316666D02*
X117683333Y-101316666D01*
X117683333Y-100616666D01*
X121133333Y-69066666D02*
X121533333Y-69066666D01*
X121333333Y-69066666D02*
X121333333Y-68366666D01*
X121400000Y-68466666D01*
X121466666Y-68533333D01*
X121533333Y-68566666D01*
X120900000Y-68366666D02*
X120466666Y-68366666D01*
X120700000Y-68633333D01*
X120600000Y-68633333D01*
X120533333Y-68666666D01*
X120500000Y-68700000D01*
X120466666Y-68766666D01*
X120466666Y-68933333D01*
X120500000Y-69000000D01*
X120533333Y-69033333D01*
X120600000Y-69066666D01*
X120800000Y-69066666D01*
X120866666Y-69033333D01*
X120900000Y-69000000D01*
X85683333Y-92750000D02*
X85716666Y-92783333D01*
X85816666Y-92816666D01*
X85883333Y-92816666D01*
X85983333Y-92783333D01*
X86050000Y-92716666D01*
X86083333Y-92650000D01*
X86116666Y-92516666D01*
X86116666Y-92416666D01*
X86083333Y-92283333D01*
X86050000Y-92216666D01*
X85983333Y-92150000D01*
X85883333Y-92116666D01*
X85816666Y-92116666D01*
X85716666Y-92150000D01*
X85683333Y-92183333D01*
X85383333Y-92450000D02*
X85150000Y-92450000D01*
X85050000Y-92816666D02*
X85383333Y-92816666D01*
X85383333Y-92116666D01*
X85050000Y-92116666D01*
X84616666Y-92116666D02*
X84550000Y-92116666D01*
X84483333Y-92150000D01*
X84450000Y-92183333D01*
X84416666Y-92250000D01*
X84383333Y-92383333D01*
X84383333Y-92550000D01*
X84416666Y-92683333D01*
X84450000Y-92750000D01*
X84483333Y-92783333D01*
X84550000Y-92816666D01*
X84616666Y-92816666D01*
X84683333Y-92783333D01*
X84716666Y-92750000D01*
X84750000Y-92683333D01*
X84783333Y-92550000D01*
X84783333Y-92383333D01*
X84750000Y-92250000D01*
X84716666Y-92183333D01*
X84683333Y-92150000D01*
X84616666Y-92116666D01*
X116616666Y-92116666D02*
X116183333Y-92116666D01*
X116416666Y-92383333D01*
X116316666Y-92383333D01*
X116250000Y-92416666D01*
X116216666Y-92450000D01*
X116183333Y-92516666D01*
X116183333Y-92683333D01*
X116216666Y-92750000D01*
X116250000Y-92783333D01*
X116316666Y-92816666D01*
X116516666Y-92816666D01*
X116583333Y-92783333D01*
X116616666Y-92750000D01*
X115983333Y-92116666D02*
X115750000Y-92816666D01*
X115516666Y-92116666D01*
X115350000Y-92116666D02*
X114916666Y-92116666D01*
X115150000Y-92383333D01*
X115050000Y-92383333D01*
X114983333Y-92416666D01*
X114950000Y-92450000D01*
X114916666Y-92516666D01*
X114916666Y-92683333D01*
X114950000Y-92750000D01*
X114983333Y-92783333D01*
X115050000Y-92816666D01*
X115250000Y-92816666D01*
X115316666Y-92783333D01*
X115350000Y-92750000D01*
D10*
X124285714Y-53452380D02*
X124285714Y-52452380D01*
X124285714Y-53404761D02*
X124380952Y-53452380D01*
X124571428Y-53452380D01*
X124666666Y-53404761D01*
X124714285Y-53357142D01*
X124761904Y-53261904D01*
X124761904Y-52976190D01*
X124714285Y-52880952D01*
X124666666Y-52833333D01*
X124571428Y-52785714D01*
X124380952Y-52785714D01*
X124285714Y-52833333D01*
X123380952Y-52785714D02*
X123380952Y-53452380D01*
X123809523Y-52785714D02*
X123809523Y-53309523D01*
X123761904Y-53404761D01*
X123666666Y-53452380D01*
X123523809Y-53452380D01*
X123428571Y-53404761D01*
X123380952Y-53357142D01*
X122952380Y-53404761D02*
X122857142Y-53452380D01*
X122666666Y-53452380D01*
X122571428Y-53404761D01*
X122523809Y-53309523D01*
X122523809Y-53261904D01*
X122571428Y-53166666D01*
X122666666Y-53119047D01*
X122809523Y-53119047D01*
X122904761Y-53071428D01*
X122952380Y-52976190D01*
X122952380Y-52928571D01*
X122904761Y-52833333D01*
X122809523Y-52785714D01*
X122666666Y-52785714D01*
X122571428Y-52833333D01*
X122238095Y-52785714D02*
X121857142Y-52785714D01*
X122095238Y-52452380D02*
X122095238Y-53309523D01*
X122047619Y-53404761D01*
X121952380Y-53452380D01*
X121857142Y-53452380D01*
X121523809Y-53452380D02*
X121523809Y-52785714D01*
X121523809Y-52452380D02*
X121571428Y-52500000D01*
X121523809Y-52547619D01*
X121476190Y-52500000D01*
X121523809Y-52452380D01*
X121523809Y-52547619D01*
X121047619Y-52785714D02*
X121047619Y-53452380D01*
X121047619Y-52880952D02*
X121000000Y-52833333D01*
X120904761Y-52785714D01*
X120761904Y-52785714D01*
X120666666Y-52833333D01*
X120619047Y-52928571D01*
X120619047Y-53452380D01*
X120142857Y-53357142D02*
X120095238Y-53404761D01*
X120142857Y-53452380D01*
X120190476Y-53404761D01*
X120142857Y-53357142D01*
X120142857Y-53452380D01*
X119523809Y-53452380D02*
X119619047Y-53404761D01*
X119666666Y-53309523D01*
X119666666Y-52452380D01*
X118761904Y-53404761D02*
X118857142Y-53452380D01*
X119047619Y-53452380D01*
X119142857Y-53404761D01*
X119190476Y-53309523D01*
X119190476Y-52928571D01*
X119142857Y-52833333D01*
X119047619Y-52785714D01*
X118857142Y-52785714D01*
X118761904Y-52833333D01*
X118714285Y-52928571D01*
X118714285Y-53023809D01*
X119190476Y-53119047D01*
X118285714Y-53452380D02*
X118285714Y-52452380D01*
X117857142Y-53452380D02*
X117857142Y-52928571D01*
X117904761Y-52833333D01*
X118000000Y-52785714D01*
X118142857Y-52785714D01*
X118238095Y-52833333D01*
X118285714Y-52880952D01*
X117380952Y-53452380D02*
X117380952Y-52785714D01*
X117380952Y-52880952D02*
X117333333Y-52833333D01*
X117238095Y-52785714D01*
X117095238Y-52785714D01*
X117000000Y-52833333D01*
X116952380Y-52928571D01*
X116952380Y-53452380D01*
X116952380Y-52928571D02*
X116904761Y-52833333D01*
X116809523Y-52785714D01*
X116666666Y-52785714D01*
X116571428Y-52833333D01*
X116523809Y-52928571D01*
X116523809Y-53452380D01*
X115619047Y-53452380D02*
X115619047Y-52928571D01*
X115666666Y-52833333D01*
X115761904Y-52785714D01*
X115952380Y-52785714D01*
X116047619Y-52833333D01*
X115619047Y-53404761D02*
X115714285Y-53452380D01*
X115952380Y-53452380D01*
X116047619Y-53404761D01*
X116095238Y-53309523D01*
X116095238Y-53214285D01*
X116047619Y-53119047D01*
X115952380Y-53071428D01*
X115714285Y-53071428D01*
X115619047Y-53023809D01*
X115142857Y-52785714D02*
X115142857Y-53452380D01*
X115142857Y-52880952D02*
X115095238Y-52833333D01*
X115000000Y-52785714D01*
X114857142Y-52785714D01*
X114761904Y-52833333D01*
X114714285Y-52928571D01*
X114714285Y-53452380D01*
X114238095Y-52785714D02*
X114238095Y-53452380D01*
X114238095Y-52880952D02*
X114190476Y-52833333D01*
X114095238Y-52785714D01*
X113952380Y-52785714D01*
X113857142Y-52833333D01*
X113809523Y-52928571D01*
X113809523Y-53452380D01*
X112714285Y-52976190D02*
X112761904Y-52928571D01*
X112857142Y-52880952D01*
X112952380Y-52880952D01*
X113047619Y-52928571D01*
X113095238Y-52976190D01*
X113142857Y-53071428D01*
X113142857Y-53166666D01*
X113095238Y-53261904D01*
X113047619Y-53309523D01*
X112952380Y-53357142D01*
X112857142Y-53357142D01*
X112761904Y-53309523D01*
X112714285Y-53261904D01*
X112714285Y-52880952D02*
X112714285Y-53261904D01*
X112666666Y-53309523D01*
X112619047Y-53309523D01*
X112523809Y-53261904D01*
X112476190Y-53166666D01*
X112476190Y-52928571D01*
X112571428Y-52785714D01*
X112714285Y-52690476D01*
X112904761Y-52642857D01*
X113095238Y-52690476D01*
X113238095Y-52785714D01*
X113333333Y-52928571D01*
X113380952Y-53119047D01*
X113333333Y-53309523D01*
X113238095Y-53452380D01*
X113095238Y-53547619D01*
X112904761Y-53595238D01*
X112714285Y-53547619D01*
X112571428Y-53452380D01*
X112190476Y-52785714D02*
X111809523Y-52785714D01*
X112047619Y-52452380D02*
X112047619Y-53309523D01*
X112000000Y-53404761D01*
X111904761Y-53452380D01*
X111809523Y-53452380D01*
X111047619Y-52785714D02*
X111047619Y-53452380D01*
X111476190Y-52785714D02*
X111476190Y-53309523D01*
X111428571Y-53404761D01*
X111333333Y-53452380D01*
X111190476Y-53452380D01*
X111095238Y-53404761D01*
X111047619Y-53357142D01*
X110571428Y-53071428D02*
X109809523Y-53071428D01*
X109333333Y-53452380D02*
X109333333Y-52452380D01*
X109333333Y-52833333D02*
X109238095Y-52785714D01*
X109047619Y-52785714D01*
X108952380Y-52833333D01*
X108904761Y-52880952D01*
X108857142Y-52976190D01*
X108857142Y-53261904D01*
X108904761Y-53357142D01*
X108952380Y-53404761D01*
X109047619Y-53452380D01*
X109238095Y-53452380D01*
X109333333Y-53404761D01*
X108047619Y-53404761D02*
X108142857Y-53452380D01*
X108333333Y-53452380D01*
X108428571Y-53404761D01*
X108476190Y-53309523D01*
X108476190Y-52928571D01*
X108428571Y-52833333D01*
X108333333Y-52785714D01*
X108142857Y-52785714D01*
X108047619Y-52833333D01*
X108000000Y-52928571D01*
X108000000Y-53023809D01*
X108476190Y-53119047D01*
X107571428Y-53452380D02*
X107571428Y-52785714D01*
X107571428Y-52976190D02*
X107523809Y-52880952D01*
X107476190Y-52833333D01*
X107380952Y-52785714D01*
X107285714Y-52785714D01*
X106809523Y-53452380D02*
X106904761Y-53404761D01*
X106952380Y-53309523D01*
X106952380Y-52452380D01*
X106428571Y-53452380D02*
X106428571Y-52785714D01*
X106428571Y-52452380D02*
X106476190Y-52500000D01*
X106428571Y-52547619D01*
X106380952Y-52500000D01*
X106428571Y-52452380D01*
X106428571Y-52547619D01*
X105952380Y-52785714D02*
X105952380Y-53452380D01*
X105952380Y-52880952D02*
X105904761Y-52833333D01*
X105809523Y-52785714D01*
X105666666Y-52785714D01*
X105571428Y-52833333D01*
X105523809Y-52928571D01*
X105523809Y-53452380D01*
X105047619Y-53357142D02*
X105000000Y-53404761D01*
X105047619Y-53452380D01*
X105095238Y-53404761D01*
X105047619Y-53357142D01*
X105047619Y-53452380D01*
X104142857Y-53452380D02*
X104142857Y-52452380D01*
X104142857Y-53404761D02*
X104238095Y-53452380D01*
X104428571Y-53452380D01*
X104523809Y-53404761D01*
X104571428Y-53357142D01*
X104619047Y-53261904D01*
X104619047Y-52976190D01*
X104571428Y-52880952D01*
X104523809Y-52833333D01*
X104428571Y-52785714D01*
X104238095Y-52785714D01*
X104142857Y-52833333D01*
X103285714Y-53404761D02*
X103380952Y-53452380D01*
X103571428Y-53452380D01*
X103666666Y-53404761D01*
X103714285Y-53309523D01*
X103714285Y-52928571D01*
X103666666Y-52833333D01*
X103571428Y-52785714D01*
X103380952Y-52785714D01*
X103285714Y-52833333D01*
X103238095Y-52928571D01*
X103238095Y-53023809D01*
X103714285Y-53119047D01*
D11*
X124283333Y-63183333D02*
X124250000Y-63150000D01*
X124183333Y-63116666D01*
X124016666Y-63116666D01*
X123950000Y-63150000D01*
X123916666Y-63183333D01*
X123883333Y-63250000D01*
X123883333Y-63316666D01*
X123916666Y-63416666D01*
X124316666Y-63816666D01*
X123883333Y-63816666D01*
X123216666Y-63816666D02*
X123616666Y-63816666D01*
X123416666Y-63816666D02*
X123416666Y-63116666D01*
X123483333Y-63216666D01*
X123550000Y-63283333D01*
X123616666Y-63316666D01*
X121533333Y-75933333D02*
X121500000Y-75900000D01*
X121433333Y-75866666D01*
X121266666Y-75866666D01*
X121200000Y-75900000D01*
X121166666Y-75933333D01*
X121133333Y-76000000D01*
X121133333Y-76066666D01*
X121166666Y-76166666D01*
X121566666Y-76566666D01*
X121133333Y-76566666D01*
X120866666Y-75933333D02*
X120833333Y-75900000D01*
X120766666Y-75866666D01*
X120600000Y-75866666D01*
X120533333Y-75900000D01*
X120500000Y-75933333D01*
X120466666Y-76000000D01*
X120466666Y-76066666D01*
X120500000Y-76166666D01*
X120900000Y-76566666D01*
X120466666Y-76566666D01*
X107333333Y-92783333D02*
X107233333Y-92816666D01*
X107066666Y-92816666D01*
X107000000Y-92783333D01*
X106966666Y-92750000D01*
X106933333Y-92683333D01*
X106933333Y-92616666D01*
X106966666Y-92550000D01*
X107000000Y-92516666D01*
X107066666Y-92483333D01*
X107200000Y-92450000D01*
X107266666Y-92416666D01*
X107300000Y-92383333D01*
X107333333Y-92316666D01*
X107333333Y-92250000D01*
X107300000Y-92183333D01*
X107266666Y-92150000D01*
X107200000Y-92116666D01*
X107033333Y-92116666D01*
X106933333Y-92150000D01*
X106233333Y-92750000D02*
X106266666Y-92783333D01*
X106366666Y-92816666D01*
X106433333Y-92816666D01*
X106533333Y-92783333D01*
X106600000Y-92716666D01*
X106633333Y-92650000D01*
X106666666Y-92516666D01*
X106666666Y-92416666D01*
X106633333Y-92283333D01*
X106600000Y-92216666D01*
X106533333Y-92150000D01*
X106433333Y-92116666D01*
X106366666Y-92116666D01*
X106266666Y-92150000D01*
X106233333Y-92183333D01*
X105600000Y-92816666D02*
X105933333Y-92816666D01*
X105933333Y-92116666D01*
X121533333Y-63183333D02*
X121500000Y-63150000D01*
X121433333Y-63116666D01*
X121266666Y-63116666D01*
X121200000Y-63150000D01*
X121166666Y-63183333D01*
X121133333Y-63250000D01*
X121133333Y-63316666D01*
X121166666Y-63416666D01*
X121566666Y-63816666D01*
X121133333Y-63816666D01*
X120700000Y-63116666D02*
X120633333Y-63116666D01*
X120566666Y-63150000D01*
X120533333Y-63183333D01*
X120500000Y-63250000D01*
X120466666Y-63383333D01*
X120466666Y-63550000D01*
X120500000Y-63683333D01*
X120533333Y-63750000D01*
X120566666Y-63783333D01*
X120633333Y-63816666D01*
X120700000Y-63816666D01*
X120766666Y-63783333D01*
X120800000Y-63750000D01*
X120833333Y-63683333D01*
X120866666Y-63550000D01*
X120866666Y-63383333D01*
X120833333Y-63250000D01*
X120800000Y-63183333D01*
X120766666Y-63150000D01*
X120700000Y-63116666D01*
X97783333Y-92116666D02*
X97383333Y-92116666D01*
X97583333Y-92816666D02*
X97583333Y-92116666D01*
X97216666Y-92116666D02*
X96750000Y-92816666D01*
X96750000Y-92116666D02*
X97216666Y-92816666D01*
X109850000Y-92783333D02*
X109750000Y-92816666D01*
X109583333Y-92816666D01*
X109516666Y-92783333D01*
X109483333Y-92750000D01*
X109450000Y-92683333D01*
X109450000Y-92616666D01*
X109483333Y-92550000D01*
X109516666Y-92516666D01*
X109583333Y-92483333D01*
X109716666Y-92450000D01*
X109783333Y-92416666D01*
X109816666Y-92383333D01*
X109850000Y-92316666D01*
X109850000Y-92250000D01*
X109816666Y-92183333D01*
X109783333Y-92150000D01*
X109716666Y-92116666D01*
X109550000Y-92116666D01*
X109450000Y-92150000D01*
X109150000Y-92816666D02*
X109150000Y-92116666D01*
X108983333Y-92116666D01*
X108883333Y-92150000D01*
X108816666Y-92216666D01*
X108783333Y-92283333D01*
X108750000Y-92416666D01*
X108750000Y-92516666D01*
X108783333Y-92650000D01*
X108816666Y-92716666D01*
X108883333Y-92783333D01*
X108983333Y-92816666D01*
X109150000Y-92816666D01*
X108483333Y-92616666D02*
X108150000Y-92616666D01*
X108550000Y-92816666D02*
X108316666Y-92116666D01*
X108083333Y-92816666D01*
X124283333Y-65933333D02*
X124250000Y-65900000D01*
X124183333Y-65866666D01*
X124016666Y-65866666D01*
X123950000Y-65900000D01*
X123916666Y-65933333D01*
X123883333Y-66000000D01*
X123883333Y-66066666D01*
X123916666Y-66166666D01*
X124316666Y-66566666D01*
X123883333Y-66566666D01*
X123283333Y-65866666D02*
X123416666Y-65866666D01*
X123483333Y-65900000D01*
X123516666Y-65933333D01*
X123583333Y-66033333D01*
X123616666Y-66166666D01*
X123616666Y-66433333D01*
X123583333Y-66500000D01*
X123550000Y-66533333D01*
X123483333Y-66566666D01*
X123350000Y-66566666D01*
X123283333Y-66533333D01*
X123250000Y-66500000D01*
X123216666Y-66433333D01*
X123216666Y-66266666D01*
X123250000Y-66200000D01*
X123283333Y-66166666D01*
X123350000Y-66133333D01*
X123483333Y-66133333D01*
X123550000Y-66166666D01*
X123583333Y-66200000D01*
X123616666Y-66266666D01*
D12*
%TO.C,J1*%
X76420000Y-49020000D02*
X76420000Y-51620000D01*
X76420000Y-51620000D02*
X124740000Y-51620000D01*
X73820000Y-46420000D02*
X73820000Y-49020000D01*
X124740000Y-46420000D02*
X124740000Y-51620000D01*
X73820000Y-51620000D02*
X75150000Y-51620000D01*
X73820000Y-49020000D02*
X76420000Y-49020000D01*
X73820000Y-46420000D02*
X124740000Y-46420000D01*
X73820000Y-50290000D02*
X73820000Y-51620000D01*
%TD*%
M02*
