%TF.GenerationSoftware,KiCad,Pcbnew,(6.0.0-rc1-29-g9238b27f63)*%
%TF.CreationDate,2021-12-03T15:56:35+01:00*%
%TF.ProjectId,robolympics_shield,726f626f-6c79-46d7-9069-63735f736869,rev?*%
%TF.SameCoordinates,Original*%
%TF.FileFunction,Soldermask,Top*%
%TF.FilePolarity,Negative*%
%FSLAX46Y46*%
G04 Gerber Fmt 4.6, Leading zero omitted, Abs format (unit mm)*
G04 Created by KiCad (PCBNEW (6.0.0-rc1-29-g9238b27f63)) date 2021-12-03 15:56:35*
%MOMM*%
%LPD*%
G01*
G04 APERTURE LIST*
G04 Aperture macros list*
%AMRoundRect*
0 Rectangle with rounded corners*
0 $1 Rounding radius*
0 $2 $3 $4 $5 $6 $7 $8 $9 X,Y pos of 4 corners*
0 Add a 4 corners polygon primitive as box body*
4,1,4,$2,$3,$4,$5,$6,$7,$8,$9,$2,$3,0*
0 Add four circle primitives for the rounded corners*
1,1,$1+$1,$2,$3*
1,1,$1+$1,$4,$5*
1,1,$1+$1,$6,$7*
1,1,$1+$1,$8,$9*
0 Add four rect primitives between the rounded corners*
20,1,$1+$1,$2,$3,$4,$5,0*
20,1,$1+$1,$4,$5,$6,$7,0*
20,1,$1+$1,$6,$7,$8,$9,0*
20,1,$1+$1,$8,$9,$2,$3,0*%
G04 Aperture macros list end*
%ADD10C,2.700000*%
%ADD11RoundRect,0.200000X0.200000X0.275000X-0.200000X0.275000X-0.200000X-0.275000X0.200000X-0.275000X0*%
%ADD12R,2.025000X2.025000*%
%ADD13C,2.025000*%
%ADD14RoundRect,0.250000X0.620000X0.845000X-0.620000X0.845000X-0.620000X-0.845000X0.620000X-0.845000X0*%
%ADD15O,1.740000X2.190000*%
%ADD16RoundRect,0.250000X0.250000X0.475000X-0.250000X0.475000X-0.250000X-0.475000X0.250000X-0.475000X0*%
%ADD17RoundRect,0.200000X0.275000X-0.200000X0.275000X0.200000X-0.275000X0.200000X-0.275000X-0.200000X0*%
%ADD18RoundRect,0.200000X-0.200000X-0.275000X0.200000X-0.275000X0.200000X0.275000X-0.200000X0.275000X0*%
%ADD19RoundRect,0.150000X0.587500X0.150000X-0.587500X0.150000X-0.587500X-0.150000X0.587500X-0.150000X0*%
%ADD20RoundRect,0.250000X-0.450000X0.325000X-0.450000X-0.325000X0.450000X-0.325000X0.450000X0.325000X0*%
%ADD21RoundRect,0.147500X0.147500X0.172500X-0.147500X0.172500X-0.147500X-0.172500X0.147500X-0.172500X0*%
%ADD22R,1.700000X1.700000*%
%ADD23O,1.700000X1.700000*%
%ADD24R,1.800000X1.800000*%
%ADD25RoundRect,0.218750X-0.218750X-0.256250X0.218750X-0.256250X0.218750X0.256250X-0.218750X0.256250X0*%
%ADD26R,1.100000X0.500000*%
%ADD27R,2.000000X2.000000*%
%ADD28R,0.900000X1.000000*%
%ADD29R,1.700000X0.800000*%
G04 APERTURE END LIST*
D10*
%TO.C,H1*%
X128250000Y-49000000D03*
%TD*%
D11*
%TO.C,R8*%
X109080000Y-81500000D03*
X107430000Y-81500000D03*
%TD*%
D12*
%TO.C,J3*%
X75250000Y-62000000D03*
D13*
X75250000Y-58500000D03*
%TD*%
D14*
%TO.C,J9*%
X99810000Y-98480000D03*
D15*
X97270000Y-98480000D03*
X94730000Y-98480000D03*
X92190000Y-98480000D03*
%TD*%
D16*
%TO.C,C1*%
X105155000Y-76930000D03*
X103255000Y-76930000D03*
%TD*%
D10*
%TO.C,H3*%
X70250000Y-98500000D03*
%TD*%
%TO.C,H4*%
X70250000Y-49000000D03*
%TD*%
D17*
%TO.C,R4*%
X89000000Y-55375000D03*
X89000000Y-53725000D03*
%TD*%
D14*
%TO.C,J5*%
X87870000Y-98480000D03*
D15*
X85330000Y-98480000D03*
X82790000Y-98480000D03*
X80250000Y-98480000D03*
X77710000Y-98480000D03*
X75170000Y-98480000D03*
%TD*%
D18*
%TO.C,R5*%
X72975000Y-66950000D03*
X74625000Y-66950000D03*
%TD*%
D17*
%TO.C,R3*%
X87500000Y-55375000D03*
X87500000Y-53725000D03*
%TD*%
%TO.C,R2*%
X86000000Y-55375000D03*
X86000000Y-53725000D03*
%TD*%
D14*
%TO.C,J4*%
X87870000Y-89980000D03*
D15*
X85330000Y-89980000D03*
X82790000Y-89980000D03*
X80250000Y-89980000D03*
X77710000Y-89980000D03*
X75170000Y-89980000D03*
%TD*%
D19*
%TO.C,Q1*%
X122999511Y-82324511D03*
X122999511Y-80424511D03*
X121124511Y-81374511D03*
%TD*%
D17*
%TO.C,R1*%
X123312011Y-78274511D03*
X123312011Y-76624511D03*
%TD*%
D14*
%TO.C,J11*%
X123310000Y-98480000D03*
D15*
X120770000Y-98480000D03*
X118230000Y-98480000D03*
X115690000Y-98480000D03*
%TD*%
D20*
%TO.C,D1*%
X121062011Y-76099511D03*
X121062011Y-78149511D03*
%TD*%
D14*
%TO.C,J10*%
X123310000Y-89980000D03*
D15*
X120770000Y-89980000D03*
X118230000Y-89980000D03*
X115690000Y-89980000D03*
%TD*%
D21*
%TO.C,D4*%
X106485000Y-58750000D03*
X105515000Y-58750000D03*
%TD*%
D22*
%TO.C,J2*%
X126725000Y-58575000D03*
D23*
X129265000Y-58575000D03*
X126725000Y-61115000D03*
X129265000Y-61115000D03*
X126725000Y-63655000D03*
X129265000Y-63655000D03*
X126725000Y-66195000D03*
X129265000Y-66195000D03*
X126725000Y-68735000D03*
X129265000Y-68735000D03*
X126725000Y-71275000D03*
X129265000Y-71275000D03*
X126725000Y-73815000D03*
X129265000Y-73815000D03*
X126725000Y-76355000D03*
X129265000Y-76355000D03*
X126725000Y-78895000D03*
X129265000Y-78895000D03*
X126725000Y-81435000D03*
X129265000Y-81435000D03*
%TD*%
D11*
%TO.C,R7*%
X109080000Y-83000000D03*
X107430000Y-83000000D03*
%TD*%
D24*
%TO.C,LS1*%
X118637011Y-75799511D03*
X118637011Y-81949511D03*
X112487011Y-81949511D03*
X112487011Y-75799511D03*
%TD*%
D14*
%TO.C,J7*%
X111560000Y-98480000D03*
D15*
X109020000Y-98480000D03*
X106480000Y-98480000D03*
X103940000Y-98480000D03*
%TD*%
D21*
%TO.C,D2*%
X102485000Y-63000000D03*
X101515000Y-63000000D03*
%TD*%
D25*
%TO.C,D5*%
X69262500Y-66950000D03*
X70837500Y-66950000D03*
%TD*%
D17*
%TO.C,R6*%
X84500000Y-55375000D03*
X84500000Y-53725000D03*
%TD*%
D21*
%TO.C,D3*%
X112485000Y-63000000D03*
X111515000Y-63000000D03*
%TD*%
D10*
%TO.C,H2*%
X128250000Y-98500000D03*
%TD*%
D26*
%TO.C,U1*%
X99355000Y-79095000D03*
X99355000Y-80365000D03*
X99355000Y-81635000D03*
X99355000Y-82905000D03*
X105155000Y-82905000D03*
X105155000Y-81635000D03*
X105155000Y-80365000D03*
X105155000Y-79095000D03*
D27*
X102255000Y-81000000D03*
%TD*%
D14*
%TO.C,J8*%
X99810000Y-90020000D03*
D15*
X97270000Y-90020000D03*
X94730000Y-90020000D03*
X92190000Y-90020000D03*
%TD*%
D28*
%TO.C,S1*%
X69850000Y-73125000D03*
X73950000Y-73125000D03*
X73950000Y-71525000D03*
X69850000Y-71525000D03*
D29*
X71900000Y-73775000D03*
%TD*%
D14*
%TO.C,J6*%
X111560000Y-90000000D03*
D15*
X109020000Y-90000000D03*
X106480000Y-90000000D03*
X103940000Y-90000000D03*
%TD*%
D22*
%TO.C,J1*%
X75150000Y-50290000D03*
D23*
X75150000Y-47750000D03*
X77690000Y-50290000D03*
X77690000Y-47750000D03*
X80230000Y-50290000D03*
X80230000Y-47750000D03*
X82770000Y-50290000D03*
X82770000Y-47750000D03*
X85310000Y-50290000D03*
X85310000Y-47750000D03*
X87850000Y-50290000D03*
X87850000Y-47750000D03*
X90390000Y-50290000D03*
X90390000Y-47750000D03*
X92930000Y-50290000D03*
X92930000Y-47750000D03*
X95470000Y-50290000D03*
X95470000Y-47750000D03*
X98010000Y-50290000D03*
X98010000Y-47750000D03*
X100550000Y-50290000D03*
X100550000Y-47750000D03*
X103090000Y-50290000D03*
X103090000Y-47750000D03*
X105630000Y-50290000D03*
X105630000Y-47750000D03*
X108170000Y-50290000D03*
X108170000Y-47750000D03*
X110710000Y-50290000D03*
X110710000Y-47750000D03*
X113250000Y-50290000D03*
X113250000Y-47750000D03*
X115790000Y-50290000D03*
X115790000Y-47750000D03*
X118330000Y-50290000D03*
X118330000Y-47750000D03*
X120870000Y-50290000D03*
X120870000Y-47750000D03*
X123410000Y-50290000D03*
X123410000Y-47750000D03*
%TD*%
M02*
