M48
; DRILL file {KiCad (6.0.0-rc1-29-g9238b27f63)} date Fri Dec  3 15:56:37 2021
; FORMAT={-:-/ absolute / inch / decimal}
; #@! TF.CreationDate,2021-12-03T15:56:37+01:00
; #@! TF.GenerationSoftware,Kicad,Pcbnew,(6.0.0-rc1-29-g9238b27f63)
; #@! TF.FileFunction,Plated,1,2,PTH
FMAT,2
INCH
; #@! TA.AperFunction,Plated,PTH,ViaDrill
T1C0.0118
; #@! TA.AperFunction,Plated,PTH,ViaDrill
T2C0.0157
; #@! TA.AperFunction,Plated,PTH,ViaDrill
T3C0.0236
; #@! TA.AperFunction,Plated,PTH,ComponentDrill
T4C0.0394
; #@! TA.AperFunction,Plated,PTH,ComponentDrill
T5C0.0469
; #@! TA.AperFunction,Plated,PTH,ComponentDrill
T6C0.0531
%
G90
G05
T1
X3.0551Y-2.876
X3.1693Y-2.8642
X3.1752Y-2.4508
X3.2382Y-3.002
X3.2677Y-3.0315
X3.2696Y-2.4114
X3.2795Y-2.0925
X3.2874Y-3.4547
X3.2971Y-3.1401
X3.3071Y-3.1102
X3.3169Y-2.9823
X3.3268Y-2.2146
X3.3268Y-3.4154
X3.437Y-3.1398
X3.437Y-3.249
X3.4449Y-3.2185
X3.5039Y-3.1693
X3.752Y-2.2579
X3.7835Y-2.2421
X3.8071Y-2.2185
X3.8397Y-2.3456
X3.8752Y-2.3102
X3.9027Y-2.2826
X4.0748Y-2.1555
X4.0945Y-2.126
X4.124Y-2.0965
X4.2618Y-3.3268
X4.5276Y-2.1654
T2
X2.7264Y-3.6614
X2.815Y-3.4843
X3.3268Y-2.6083
X3.5236Y-2.4016
X3.5728Y-2.6969
X3.6713Y-3.0413
X3.7992Y-3.1594
X3.8189Y-2.8248
X4.0453Y-2.2146
X4.4094Y-2.8543
X4.5276Y-2.2539
X4.6555Y-2.8937
X4.6752Y-2.7165
X5.0591Y-3.4646
T3
X3.1398Y-2.7559
X3.4744Y-2.8937
T4
X2.9587Y-1.8799
X2.9587Y-1.9799
X3.0587Y-1.8799
X3.0587Y-1.9799
X3.1587Y-1.8799
X3.1587Y-1.9799
X3.2587Y-1.8799
X3.2587Y-1.9799
X3.3587Y-1.8799
X3.3587Y-1.9799
X3.4587Y-1.8799
X3.4587Y-1.9799
X3.5587Y-1.8799
X3.5587Y-1.9799
X3.6587Y-1.8799
X3.6587Y-1.9799
X3.7587Y-1.8799
X3.7587Y-1.9799
X3.8587Y-1.8799
X3.8587Y-1.9799
X3.9587Y-1.8799
X3.9587Y-1.9799
X4.0587Y-1.8799
X4.0587Y-1.9799
X4.1587Y-1.8799
X4.1587Y-1.9799
X4.2587Y-1.8799
X4.2587Y-1.9799
X4.3587Y-1.8799
X4.3587Y-1.9799
X4.4587Y-1.8799
X4.4587Y-1.9799
X4.5587Y-1.8799
X4.5587Y-1.9799
X4.6587Y-1.8799
X4.6587Y-1.9799
X4.7587Y-1.8799
X4.7587Y-1.9799
X4.8587Y-1.8799
X4.8587Y-1.9799
X4.9892Y-2.3061
X4.9892Y-2.4061
X4.9892Y-2.5061
X4.9892Y-2.6061
X4.9892Y-2.7061
X4.9892Y-2.8061
X4.9892Y-2.9061
X4.9892Y-3.0061
X4.9892Y-3.1061
X4.9892Y-3.2061
X5.0892Y-2.3061
X5.0892Y-2.4061
X5.0892Y-2.5061
X5.0892Y-2.6061
X5.0892Y-2.7061
X5.0892Y-2.8061
X5.0892Y-2.9061
X5.0892Y-3.0061
X5.0892Y-3.1061
X5.0892Y-3.2061
T5
X2.9594Y-3.5425
X2.9594Y-3.8772
X3.0594Y-3.5425
X3.0594Y-3.8772
X3.1594Y-3.5425
X3.1594Y-3.8772
X3.2594Y-3.5425
X3.2594Y-3.8772
X3.3594Y-3.5425
X3.3594Y-3.8772
X3.4594Y-3.5425
X3.4594Y-3.8772
X3.6295Y-3.5441
X3.6295Y-3.8772
X3.7295Y-3.5441
X3.7295Y-3.8772
X3.8295Y-3.5441
X3.8295Y-3.8772
X3.9295Y-3.5441
X3.9295Y-3.8772
X4.0921Y-3.5433
X4.0921Y-3.8772
X4.1921Y-3.5433
X4.1921Y-3.8772
X4.2921Y-3.5433
X4.2921Y-3.8772
X4.3921Y-3.5433
X4.3921Y-3.8772
X4.5547Y-3.5425
X4.5547Y-3.8772
X4.6547Y-3.5425
X4.6547Y-3.8772
X4.7547Y-3.5425
X4.7547Y-3.8772
X4.8547Y-3.5425
X4.8547Y-3.8772
T6
X2.9626Y-2.3031
X2.9626Y-2.4409
T0
M30
